<svg width="50" height="50" viewBox="0 0 50 50" fill="none" xmlns="http://www.w3.org/2000/svg">
<rect width="50" height="50" fill="#F5F5F5"/>
<path d="M5.58 15.232C5.588 15.288 5.62 15.348 5.676 15.412C5.732 15.468 5.76 15.516 5.76 15.556C5.76 15.652 5.72 15.764 5.64 15.892C5.56 16.012 5.48 16.072 5.4 16.072C5.264 16.072 5.16 15.988 5.088 15.82C5.016 15.652 4.98 15.456 4.98 15.232C4.98 15.04 4.992 14.464 5.016 13.504L5.028 13.048C5.028 12.864 4.98 12.732 4.884 12.652C4.524 13.26 4.188 13.788 3.876 14.236C3.564 14.684 3.168 15.108 2.688 15.508C2.208 15.9 1.704 16.096 1.176 16.096C0.92 16.096 0.72 16.016 0.576 15.856C0.44 15.696 0.372 15.488 0.372 15.232C0.372 14.912 0.516 14.476 0.804 13.924C1.092 13.364 1.46 12.8 1.908 12.232C2.356 11.656 2.804 11.184 3.252 10.816C3.548 10.576 3.784 10.416 3.96 10.336C4.136 10.248 4.292 10.204 4.428 10.204C4.556 10.204 4.688 10.244 4.824 10.324C4.96 10.404 5.076 10.516 5.172 10.66C5.268 10.804 5.316 10.968 5.316 11.152C5.316 11.4 5.248 11.636 5.112 11.86L5.316 11.8C5.404 11.8 5.456 11.908 5.472 12.124C5.48 12.252 5.488 12.512 5.496 12.904C5.512 13.296 5.524 13.62 5.532 13.876C5.54 14.14 5.548 14.396 5.556 14.644C5.564 14.892 5.572 15.088 5.58 15.232ZM1.344 15.448C1.776 15.448 2.192 15.288 2.592 14.968C2.992 14.648 3.348 14.268 3.66 13.828C3.98 13.38 4.332 12.832 4.716 12.184C4.812 11.944 4.86 11.684 4.86 11.404C4.86 11.236 4.808 11.092 4.704 10.972C4.608 10.844 4.476 10.78 4.308 10.78C4.108 10.78 3.852 10.916 3.54 11.188C3.18 11.492 2.8 11.9 2.4 12.412C2 12.916 1.668 13.416 1.404 13.912C1.14 14.408 1.008 14.8 1.008 15.088C1.008 15.328 1.12 15.448 1.344 15.448ZM12.1116 11.356C12.1116 12.036 11.8396 12.78 11.2956 13.588C10.7516 14.388 10.0596 15.096 9.21956 15.712C8.86756 15.976 8.60356 16.108 8.42756 16.108C8.33956 16.108 8.26756 16.076 8.21156 16.012C8.15556 15.948 8.12756 15.872 8.12756 15.784C8.12756 15.696 8.16356 15.608 8.23556 15.52C8.31556 15.432 8.43156 15.356 8.58356 15.292C9.13556 15.052 9.63956 14.708 10.0956 14.26C10.5516 13.804 10.9076 13.324 11.1636 12.82C11.4196 12.316 11.5476 11.872 11.5476 11.488C11.5476 11.336 11.5116 11.224 11.4396 11.152C11.3756 11.072 11.2676 11.032 11.1156 11.032C10.7796 11.032 10.4356 11.168 10.0836 11.44C9.73156 11.712 9.40356 12.068 9.09956 12.508C8.86756 12.844 8.64356 13.248 8.42756 13.72C8.21156 14.192 8.04756 14.692 7.93556 15.22C7.87156 15.5 7.73556 15.64 7.52756 15.64C7.47156 15.64 7.41156 15.592 7.34756 15.496C7.28356 15.392 7.25156 15.3 7.25156 15.22C7.25156 14.292 7.21956 12.928 7.15556 11.128C7.09156 9.328 7.04756 8.3 7.02356 8.044C7.02356 7.996 7.01956 7.952 7.01156 7.912C7.00356 7.864 6.99556 7.82 6.98756 7.78C6.97956 7.732 6.97156 7.684 6.96356 7.636C6.95556 7.58 6.95156 7.528 6.95156 7.48C6.95156 7.296 7.03556 7.204 7.20356 7.204C7.33956 7.204 7.44756 7.292 7.52756 7.468C7.61556 7.636 7.65956 7.828 7.65956 8.044V8.68C7.65956 10.584 7.68756 12.048 7.74356 13.072C7.77556 13.576 7.80756 13.856 7.83956 13.912C7.92756 13.648 8.06356 13.352 8.24756 13.024C8.43956 12.696 8.63956 12.392 8.84756 12.112C9.22356 11.6 9.63156 11.192 10.0716 10.888C10.5116 10.576 10.9116 10.42 11.2716 10.42C11.5196 10.42 11.7196 10.5 11.8716 10.66C12.0316 10.82 12.1116 11.052 12.1116 11.356ZM17.5933 12.94C17.6493 12.94 17.6773 13 17.6773 13.12C17.6773 13.264 17.5693 13.58 17.3533 14.068C17.1453 14.556 16.8253 15.008 16.3933 15.424C15.9693 15.84 15.4453 16.048 14.8213 16.048C14.3093 16.048 13.8813 15.888 13.5373 15.568C13.1933 15.248 13.0213 14.756 13.0213 14.092C13.0213 13.468 13.1653 12.852 13.4533 12.244C13.7413 11.628 14.1173 11.128 14.5813 10.744C15.0453 10.352 15.5253 10.156 16.0213 10.156C16.3173 10.156 16.5653 10.224 16.7653 10.36C16.9733 10.488 17.0773 10.676 17.0773 10.924C17.0773 11.204 16.9173 11.476 16.5973 11.74C16.2853 12.004 15.8773 12.236 15.3733 12.436C14.8693 12.636 14.3493 12.78 13.8133 12.868C13.7173 13.236 13.6693 13.596 13.6693 13.948C13.6693 14.412 13.7773 14.772 13.9933 15.028C14.2173 15.284 14.5333 15.412 14.9413 15.412C15.5573 15.412 16.0573 15.192 16.4413 14.752C16.8253 14.312 17.1453 13.816 17.4013 13.264C17.4173 13.232 17.4453 13.172 17.4853 13.084C17.5253 12.988 17.5613 12.94 17.5933 12.94ZM16.5373 11.056C16.5373 10.928 16.4693 10.828 16.3333 10.756C16.2053 10.684 16.0533 10.648 15.8773 10.648C15.5733 10.648 15.2813 10.748 15.0013 10.948C14.7213 11.148 14.4853 11.388 14.2933 11.668C14.1093 11.948 13.9893 12.196 13.9333 12.412C14.3013 12.372 14.6893 12.268 15.0973 12.1C15.5053 11.932 15.8453 11.748 16.1173 11.548C16.3973 11.348 16.5373 11.184 16.5373 11.056ZM19.7877 15.676C19.7877 15.756 19.7357 15.82 19.6317 15.868C19.5277 15.916 19.4117 15.94 19.2837 15.94C19.1877 15.94 19.0957 15.828 19.0077 15.604C18.9277 15.372 18.8877 15.024 18.8877 14.56C18.8957 13.656 18.9077 12.564 18.9237 11.284C18.9477 10.004 18.9677 9.04 18.9837 8.392C18.9917 8.16 19.0317 7.944 19.1037 7.744C19.1837 7.544 19.3197 7.444 19.5117 7.444C19.5757 7.444 19.6157 7.48 19.6317 7.552C19.6557 7.616 19.6677 7.744 19.6677 7.936C19.6677 7.944 19.6637 7.972 19.6557 8.02C19.6557 8.06 19.6557 8.136 19.6557 8.248C19.5117 10.352 19.4397 12.404 19.4397 14.404C19.4397 14.66 19.4957 14.932 19.6077 15.22C19.7277 15.508 19.7877 15.66 19.7877 15.676ZM21.8181 8.488C21.8181 8.608 21.6861 8.668 21.4221 8.668C21.2861 8.668 21.1461 8.612 21.0021 8.5C20.8661 8.388 20.7981 8.296 20.7981 8.224C20.7981 8.136 20.8381 8.052 20.9181 7.972C21.0061 7.892 21.0941 7.852 21.1821 7.852C21.1821 7.852 21.2101 7.864 21.2661 7.888C21.3301 7.904 21.4021 7.956 21.4821 8.044C21.5461 8.108 21.6181 8.192 21.6981 8.296C21.7781 8.4 21.8181 8.464 21.8181 8.488ZM22.1181 16.036C22.1181 16.116 22.0821 16.176 22.0101 16.216C21.9461 16.264 21.8701 16.284 21.7821 16.276C21.6701 16.268 21.5861 16.088 21.5301 15.736C21.4821 15.384 21.4301 14.716 21.3741 13.732C21.3421 13.084 21.3141 12.452 21.2901 11.836C21.2661 11.212 21.2501 10.732 21.2421 10.396C21.2421 10.308 21.2541 10.244 21.2781 10.204C21.3101 10.156 21.3661 10.132 21.4461 10.132C21.6301 10.132 21.7461 10.208 21.7941 10.36C21.8421 10.512 21.8661 10.804 21.8661 11.236L21.8541 12.652C21.8541 13.46 21.8781 14.108 21.9261 14.596C21.9261 14.62 21.9621 14.876 22.0341 15.364C22.0901 15.7 22.1181 15.924 22.1181 16.036Z" fill="black"/>
<path d="M20.952 28.88C20.952 29.504 20.828 30.072 20.58 30.584C20.332 31.096 20.04 31.512 19.704 31.832C19.36 32.16 19 32.424 18.624 32.624C18.256 32.832 17.936 32.936 17.664 32.936C17.512 32.936 17.404 32.896 17.34 32.816C17.276 32.744 17.244 32.656 17.244 32.552C17.244 32.456 17.424 32.344 17.784 32.216C18.328 32.04 18.832 31.744 19.296 31.328C19.656 31.008 19.92 30.644 20.088 30.236C20.256 29.828 20.34 29.412 20.34 28.988C20.34 28.508 20.308 28.068 20.244 27.668C20.188 27.268 20.096 26.776 19.968 26.192C19.824 25.576 19.724 25.052 19.668 24.62C19.532 24.988 19.32 25.432 19.032 25.952C18.752 26.472 18.416 26.972 18.024 27.452C17.656 27.908 17.32 28.248 17.016 28.472C16.72 28.696 16.432 28.808 16.152 28.808C15.912 28.808 15.732 28.716 15.612 28.532C15.5 28.34 15.444 28.08 15.444 27.752C15.444 27.208 15.612 26.568 15.948 25.832C16.284 25.096 16.704 24.464 17.208 23.936C17.712 23.408 18.208 23.144 18.696 23.144C18.864 23.144 18.992 23.204 19.08 23.324C19.176 23.444 19.224 23.588 19.224 23.756C19.224 23.972 19.18 24.08 19.092 24.08C19.068 24.08 19.036 24.052 18.996 23.996C18.964 23.932 18.924 23.876 18.876 23.828C18.828 23.78 18.776 23.756 18.72 23.756C18.312 23.756 17.896 23.984 17.472 24.44C17.056 24.896 16.708 25.432 16.428 26.048C16.156 26.656 16.02 27.156 16.02 27.548C16.02 27.764 16.048 27.92 16.104 28.016C16.168 28.112 16.264 28.16 16.392 28.16C16.584 28.16 16.816 28.048 17.088 27.824C17.36 27.6 17.684 27.248 18.06 26.768C18.396 26.344 18.7 25.852 18.972 25.292C19.252 24.724 19.464 24.184 19.608 23.672C19.624 23.624 19.648 23.584 19.68 23.552C19.72 23.52 19.764 23.504 19.812 23.504C19.884 23.504 19.956 23.528 20.028 23.576C20.108 23.616 20.148 23.66 20.148 23.708C20.148 23.74 20.14 23.776 20.124 23.816C20.116 23.848 20.108 23.868 20.1 23.876C20.156 24.316 20.288 25 20.496 25.928C20.648 26.584 20.76 27.136 20.832 27.584C20.912 28.024 20.952 28.456 20.952 28.88ZM27.1199 28.796C27.1199 28.924 27.0839 29.024 27.0119 29.096C26.9399 29.168 26.8399 29.204 26.7119 29.204C26.5519 29.204 26.4039 29.036 26.2679 28.7C26.1399 28.364 26.0599 28.016 26.0279 27.656C25.9959 27.312 25.9719 26.616 25.9559 25.568C25.9479 25.4 25.9439 25.232 25.9439 25.064C25.9439 24.888 25.9399 24.74 25.9319 24.62C25.6999 25.172 25.3839 25.8 24.9839 26.504C24.5839 27.208 24.1799 27.812 23.7719 28.316C23.3719 28.82 23.0439 29.072 22.7879 29.072C22.5239 29.072 22.3479 28.932 22.2599 28.652C22.1799 28.372 22.1399 27.928 22.1399 27.32C22.1399 26.752 22.2119 26.108 22.3559 25.388C22.5079 24.668 22.6799 24.12 22.8719 23.744C22.9519 23.576 23.0199 23.464 23.0759 23.408C23.1319 23.344 23.1959 23.312 23.2679 23.312C23.4679 23.312 23.5679 23.352 23.5679 23.432C23.5679 23.472 23.5279 23.564 23.4479 23.708C23.2319 24.108 23.0439 24.588 22.8839 25.148C22.7239 25.708 22.6439 26.46 22.6439 27.404C22.6439 28.036 22.7319 28.352 22.9079 28.352C23.1159 28.352 23.3959 28.124 23.7479 27.668C24.1079 27.204 24.4639 26.652 24.8159 26.012C25.1679 25.372 25.4359 24.816 25.6199 24.344C25.6839 24.184 25.7559 23.936 25.8359 23.6C25.8599 23.464 25.8839 23.368 25.9079 23.312C25.9319 23.248 25.9599 23.216 25.9919 23.216C26.0799 23.216 26.1759 23.252 26.2799 23.324C26.3839 23.396 26.4359 23.472 26.4359 23.552C26.4359 23.936 26.4479 24.596 26.4719 25.532C26.5039 26.46 26.5399 27.104 26.5799 27.464C26.6119 27.776 26.6679 28.02 26.7479 28.196C26.8359 28.372 26.9199 28.512 26.9999 28.616C27.0799 28.712 27.1199 28.772 27.1199 28.796ZM29.2682 28.676C29.2682 28.756 29.2162 28.82 29.1122 28.868C29.0082 28.916 28.8922 28.94 28.7642 28.94C28.6682 28.94 28.5762 28.828 28.4882 28.604C28.4082 28.372 28.3682 28.024 28.3682 27.56C28.3762 26.656 28.3882 25.564 28.4042 24.284C28.4282 23.004 28.4482 22.04 28.4642 21.392C28.4722 21.16 28.5122 20.944 28.5842 20.744C28.6642 20.544 28.8002 20.444 28.9922 20.444C29.0562 20.444 29.0962 20.48 29.1122 20.552C29.1362 20.616 29.1482 20.744 29.1482 20.936C29.1482 20.944 29.1442 20.972 29.1362 21.02C29.1362 21.06 29.1362 21.136 29.1362 21.248C28.9922 23.352 28.9202 25.404 28.9202 27.404C28.9202 27.66 28.9762 27.932 29.0882 28.22C29.2082 28.508 29.2682 28.66 29.2682 28.676ZM35.6545 24.356C35.6545 25.036 35.3825 25.78 34.8385 26.588C34.2945 27.388 33.6025 28.096 32.7625 28.712C32.4105 28.976 32.1465 29.108 31.9705 29.108C31.8825 29.108 31.8105 29.076 31.7545 29.012C31.6985 28.948 31.6705 28.872 31.6705 28.784C31.6705 28.696 31.7065 28.608 31.7785 28.52C31.8585 28.432 31.9745 28.356 32.1265 28.292C32.6785 28.052 33.1825 27.708 33.6385 27.26C34.0945 26.804 34.4505 26.324 34.7065 25.82C34.9625 25.316 35.0905 24.872 35.0905 24.488C35.0905 24.336 35.0545 24.224 34.9825 24.152C34.9185 24.072 34.8105 24.032 34.6585 24.032C34.3225 24.032 33.9785 24.168 33.6265 24.44C33.2745 24.712 32.9465 25.068 32.6425 25.508C32.4105 25.844 32.1865 26.248 31.9705 26.72C31.7545 27.192 31.5905 27.692 31.4785 28.22C31.4145 28.5 31.2785 28.64 31.0705 28.64C31.0145 28.64 30.9545 28.592 30.8905 28.496C30.8265 28.392 30.7945 28.3 30.7945 28.22C30.7945 27.292 30.7625 25.928 30.6985 24.128C30.6345 22.328 30.5905 21.3 30.5665 21.044C30.5665 20.996 30.5625 20.952 30.5545 20.912C30.5465 20.864 30.5385 20.82 30.5305 20.78C30.5225 20.732 30.5145 20.684 30.5065 20.636C30.4985 20.58 30.4945 20.528 30.4945 20.48C30.4945 20.296 30.5785 20.204 30.7465 20.204C30.8825 20.204 30.9905 20.292 31.0705 20.468C31.1585 20.636 31.2025 20.828 31.2025 21.044V21.68C31.2025 23.584 31.2305 25.048 31.2865 26.072C31.3185 26.576 31.3505 26.856 31.3825 26.912C31.4705 26.648 31.6065 26.352 31.7905 26.024C31.9825 25.696 32.1825 25.392 32.3905 25.112C32.7665 24.6 33.1745 24.192 33.6145 23.888C34.0545 23.576 34.4545 23.42 34.8145 23.42C35.0625 23.42 35.2625 23.5 35.4145 23.66C35.5745 23.82 35.6545 24.052 35.6545 24.356ZM41.5683 28.232C41.5763 28.288 41.6083 28.348 41.6643 28.412C41.7203 28.468 41.7483 28.516 41.7483 28.556C41.7483 28.652 41.7083 28.764 41.6283 28.892C41.5483 29.012 41.4683 29.072 41.3883 29.072C41.2523 29.072 41.1483 28.988 41.0763 28.82C41.0043 28.652 40.9683 28.456 40.9683 28.232C40.9683 28.04 40.9803 27.464 41.0043 26.504L41.0163 26.048C41.0163 25.864 40.9683 25.732 40.8723 25.652C40.5123 26.26 40.1763 26.788 39.8643 27.236C39.5523 27.684 39.1563 28.108 38.6763 28.508C38.1963 28.9 37.6923 29.096 37.1643 29.096C36.9083 29.096 36.7083 29.016 36.5643 28.856C36.4283 28.696 36.3603 28.488 36.3603 28.232C36.3603 27.912 36.5043 27.476 36.7923 26.924C37.0803 26.364 37.4483 25.8 37.8963 25.232C38.3443 24.656 38.7923 24.184 39.2403 23.816C39.5363 23.576 39.7723 23.416 39.9483 23.336C40.1243 23.248 40.2803 23.204 40.4163 23.204C40.5443 23.204 40.6763 23.244 40.8123 23.324C40.9483 23.404 41.0643 23.516 41.1603 23.66C41.2563 23.804 41.3043 23.968 41.3043 24.152C41.3043 24.4 41.2363 24.636 41.1003 24.86L41.3043 24.8C41.3923 24.8 41.4443 24.908 41.4603 25.124C41.4683 25.252 41.4763 25.512 41.4843 25.904C41.5003 26.296 41.5123 26.62 41.5203 26.876C41.5283 27.14 41.5363 27.396 41.5443 27.644C41.5523 27.892 41.5603 28.088 41.5683 28.232ZM37.3323 28.448C37.7643 28.448 38.1803 28.288 38.5803 27.968C38.9803 27.648 39.3363 27.268 39.6483 26.828C39.9683 26.38 40.3203 25.832 40.7043 25.184C40.8003 24.944 40.8483 24.684 40.8483 24.404C40.8483 24.236 40.7963 24.092 40.6923 23.972C40.5963 23.844 40.4643 23.78 40.2963 23.78C40.0963 23.78 39.8403 23.916 39.5283 24.188C39.1683 24.492 38.7883 24.9 38.3883 25.412C37.9883 25.916 37.6563 26.416 37.3923 26.912C37.1283 27.408 36.9963 27.8 36.9963 28.088C36.9963 28.328 37.1083 28.448 37.3323 28.448ZM47.0678 29.084C47.0678 29.18 47.0278 29.26 46.9478 29.324C46.8678 29.396 46.7718 29.432 46.6598 29.432C46.5798 29.432 46.5118 29.412 46.4558 29.372C46.3998 29.34 46.3718 29.292 46.3718 29.228C46.3718 28.9 46.3958 28.392 46.4438 27.704C46.4918 26.968 46.5158 26.356 46.5158 25.868C46.5158 25.396 46.4998 25.012 46.4678 24.716C46.4438 24.412 46.3798 24.26 46.2758 24.26C46.0038 24.26 45.7038 24.6 45.3758 25.28C45.0558 25.952 44.6878 26.84 44.2718 27.944L44.0918 28.424C44.0598 28.504 44.0038 28.568 43.9238 28.616C43.8518 28.664 43.7758 28.688 43.6958 28.688C43.5998 28.688 43.5358 28.68 43.5038 28.664C43.4718 28.648 43.4518 28.6 43.4438 28.52L43.3478 27.536L43.1678 25.808C43.1118 25.12 43.0438 24.52 42.9638 24.008C42.9398 23.888 42.9278 23.796 42.9278 23.732C42.9278 23.612 42.9798 23.516 43.0838 23.444C43.1878 23.364 43.3078 23.324 43.4438 23.324C43.5238 23.324 43.5798 23.516 43.6118 23.9C43.6518 24.284 43.6918 24.904 43.7318 25.76L43.7798 26.396C43.8438 27.204 43.8798 27.716 43.8878 27.932C43.9118 27.884 43.9318 27.832 43.9478 27.776C43.9718 27.712 43.9998 27.644 44.0318 27.572C44.4638 26.452 44.8678 25.52 45.2438 24.776C45.6278 24.024 45.9958 23.648 46.3478 23.648C46.5958 23.648 46.7638 23.86 46.8518 24.284C46.9478 24.7 47.0078 25.236 47.0318 25.892C47.0558 26.62 47.0678 27.684 47.0678 29.084ZM49.2634 21.488C49.2634 21.608 49.1314 21.668 48.8674 21.668C48.7314 21.668 48.5914 21.612 48.4474 21.5C48.3114 21.388 48.2434 21.296 48.2434 21.224C48.2434 21.136 48.2834 21.052 48.3634 20.972C48.4514 20.892 48.5394 20.852 48.6274 20.852C48.6274 20.852 48.6554 20.864 48.7114 20.888C48.7754 20.904 48.8474 20.956 48.9274 21.044C48.9914 21.108 49.0634 21.192 49.1434 21.296C49.2234 21.4 49.2634 21.464 49.2634 21.488ZM49.5634 29.036C49.5634 29.116 49.5274 29.176 49.4554 29.216C49.3914 29.264 49.3154 29.284 49.2274 29.276C49.1154 29.268 49.0314 29.088 48.9754 28.736C48.9274 28.384 48.8754 27.716 48.8194 26.732C48.7874 26.084 48.7594 25.452 48.7354 24.836C48.7114 24.212 48.6954 23.732 48.6874 23.396C48.6874 23.308 48.6994 23.244 48.7234 23.204C48.7554 23.156 48.8114 23.132 48.8914 23.132C49.0754 23.132 49.1914 23.208 49.2394 23.36C49.2874 23.512 49.3114 23.804 49.3114 24.236L49.2994 25.652C49.2994 26.46 49.3234 27.108 49.3714 27.596C49.3714 27.62 49.4074 27.876 49.4794 28.364C49.5354 28.7 49.5634 28.924 49.5634 29.036Z" fill="black"/>
</svg>
